<?xml version="1.0" encoding="UTF-8" standalone="no"?>
<!-- Created with Inkscape (http://www.inkscape.org/) -->
<svg
   xmlns:svg="http://www.w3.org/2000/svg"
   xmlns="http://www.w3.org/2000/svg"
   version="1.0"
   width="256"
   height="256"
   viewBox="0 0 128 128"
   id="svg"
   style="fill-rule:evenodd;stroke-miterlimit:10">
  <defs
     id="defs2447" />
  <path
     d="M 102.5,29.6 C 102.5,28.800001 102.2,28.4 101.9,28.4 C 97.200005,28.4 94.699996,29 90.200001,29 C 84.800006,29 81.899996,28.4 77.100001,28.4 C 76.600001,28.4 76.200001,29.1 76.200001,29.8 C 76.200001,30.599999 76.400001,31.2 76.800001,31.2 C 83.499994,31.599999 85.500001,33.600003 85.500001,36.6 C 85.500001,37.899998 85.1,39.300001 84.600001,40.9 L 66.600001,85.2 L 49.200001,39.7 C 48.600001,38.000001 48.100001,36.599998 48.100001,35.3 C 48.100001,32.900002 50.000007,31.499999 56.400001,31.2 C 56.8,31.2 56.900001,30.599999 56.900001,29.8 C 56.900001,29.1 56.5,28.4 56.100001,28.4 C 49.500007,28.4 46.699994,29 40.500001,29 C 34.300007,29 32.799994,28.4 26.200001,28.4 C 25.800001,28.4 25.500001,29.1 25.500001,29.8 C 25.500001,30.599999 26.100001,31.2 26.500001,31.2 C 35.699991,32.299999 36.600003,33.600007 39.500001,41.3 L 61.800001,98.8 C 62,99.199999 62.500001,99.6 63.200001,99.6 C 64,99.6 64.400001,99.299999 64.600001,98.8 L 89.700001,41.3 C 92.599998,34.800006 94.100008,31.899999 101.4,31.2 C 102.1,31.2 102.5,30.299999 102.5,29.6"
     id="text2391"
     style="font-size:100px;font-style:normal;font-variant:normal;font-weight:normal;font-stretch:normal;text-align:start;line-height:125%;writing-mode:lr-tb;text-anchor:start;fill:#000000;fill-opacity:1;stroke:none;stroke-width:1px;stroke-linecap:butt;stroke-linejoin:miter;stroke-opacity:1;font-family:HoeflerText;-inkscape-font-specification:HoeflerText" />
</svg>
